<svg width="36" height="36" viewBox="0 0 36 36" fill="none" xmlns="http://www.w3.org/2000/svg">
<g clip-path="url(#clip0_358_167)">
<path d="M25.7415 7.875H10.125C8.75515 7.87499 7.3995 8.15298 6.14016 8.69212C4.88082 9.23126 3.74398 10.0203 2.79847 11.0116C1.85295 12.0029 1.11842 13.1757 0.639345 14.4591C0.160267 15.7425 -0.0533936 17.1098 0.0112959 18.4781C0.248952 23.6377 4.47755 27.8705 9.63708 28.1138C11.866 28.2178 14.1371 27.2841 16.5811 25.2591C16.9815 24.928 17.4848 24.7469 18.0043 24.7469C18.5238 24.7469 19.027 24.928 19.4274 25.2591C20.9138 26.4923 23.2032 28.125 25.875 28.125C27.216 28.1251 28.5436 27.8589 29.7808 27.3417C31.018 26.8245 32.1402 26.0668 33.0822 25.1124C34.0241 24.158 34.7671 23.026 35.268 21.7821C35.7689 20.5382 36.0177 19.2072 36 17.8664C35.9283 12.3567 31.3257 7.875 25.7415 7.875ZM31.4804 23.5322C30.7495 24.2768 29.8771 24.8676 28.9144 25.2699C27.9518 25.6723 26.9184 25.878 25.875 25.875C23.9232 25.875 22.0782 24.5377 20.8618 23.5308C20.0575 22.8663 19.0468 22.5028 18.0036 22.5028C16.9603 22.5028 15.9496 22.8663 15.1454 23.5308C13.1513 25.1719 11.3822 25.9439 9.74255 25.8666C7.79069 25.7604 5.94691 24.9367 4.56548 23.5537C3.18405 22.1707 2.36242 20.326 2.25848 18.3741C2.20786 17.3096 2.37383 16.2459 2.74632 15.2474C3.11882 14.2489 3.6901 13.3365 4.42557 12.5652C5.16103 11.794 6.04538 11.1801 7.02506 10.7606C8.00474 10.3412 9.05935 10.1249 10.125 10.125H25.7415C30.1008 10.125 33.6938 13.6111 33.75 17.8945C33.7667 18.9381 33.5745 19.9745 33.1847 20.9426C32.7949 21.9108 32.2154 22.7913 31.4804 23.5322ZM25.875 13.5C25.875 13.7984 25.7565 14.0845 25.5455 14.2955C25.3346 14.5065 25.0484 14.625 24.75 14.625H11.25C10.9517 14.625 10.6655 14.5065 10.4546 14.2955C10.2436 14.0845 10.125 13.7984 10.125 13.5C10.125 13.2016 10.2436 12.9155 10.4546 12.7045C10.6655 12.4935 10.9517 12.375 11.25 12.375H24.75C25.0484 12.375 25.3346 12.4935 25.5455 12.7045C25.7565 12.9155 25.875 13.2016 25.875 13.5Z" fill="#EDE9DE"/>
</g>
<defs>
<clipPath id="clip0_358_167">
<rect width="36" height="36" fill="white"/>
</clipPath>
</defs>
</svg>
